PathFileType	3	(X/Y/Z)	D:\Vicon Setup\UG\Test1\New Session\NewSession13.trc
DataRate	CameraRate	NumFrames	NumMarkers	Units	OrigDataRate	OrigDataStartFrame	OrigNumFrames
100.0	100.0	12	27	mm	100.0	622	333	
Frame#	Time	Sternum			LShoulder			RShoulder			LASIS			RASIS			RPSIS			LPSIS			RKneeLateral			RKneeMedial			RFibulaHead			RMidShank			RAnkleLateral			RAnkleMedial			RHeel			RMT5			RMT2			RToe			LKneeLateral			LKneeMedial			LFibulaHead			LMidShank			LAnkleLateral			LAnkleMedial			LHeel			LMT5			LMT2			LToe			
		X1	Y1	Z1	X2	Y2	Z2	X3	Y3	Z3	X4	Y4	Z4	X5	Y5	Z5	X6	Y6	Z6	X7	Y7	Z7	X8	Y8	Z8	X9	Y9	Z9	X10	Y10	Z10	X11	Y11	Z11	X12	Y12	Z12	X13	Y13	Z13	X14	Y14	Z14	X15	Y15	Z15	X16	Y16	Z16	X17	Y17	Z17	X18	Y18	Z18	X19	Y19	Z19	X20	Y20	Z20	X21	Y21	Z21	X22	Y22	Z22	X23	Y23	Z23	X24	Y24	Z24	X25	Y25	Z25	X26	Y26	Z26	X27	Y27	Z27	
622	6.21	-206.17853	1358.16	-326.81067	-14.323125	1415.7306	-420.15631	-384.4863	1407.9443	-412.40305	-96.460907	986.00977	-371.33829	-354.33755	988.03705	-395.56161	-266.16022	1002.6456	-562.9173	-135.44302	1003.2139	-556.69812	-404.13754	519.85004	-447.67502	-284.35333	481.73981	-399.51923	-409.37979	460.43152	-487.18579	-317.6853	329.85806	-578.74109	-342.18567	258.70139	-775.2832	-282.59421	220.58018	-709.48181	-264.60184	297.23026	-804.03345	-398.77664	102.48289	-787.47687	-341.96185	106.77259	-735.38879	-349.58987	68.158264	-725.13574	-71.317337	512.65656	-325.28699	-199.75444	504.80957	-303.73236	-69.723366	448.17258	-333.34085	-158.06038	300.54831	-296.97833	-115.86365	93.848061	-353.79868	-197.1969	118.84076	-316.23257	-177.18875	63.287338	-424.38116	-75.782906	41.438965	-220.33699	-138.79991	63.146553	-203.42366	-146.12865	51.21999	-161.36777
623	6.22	-205.83311	1361.1584	-313.41437	-13.018355	1418.8165	-405.56226	-383.83206	1410.5278	-399.93201	-95.204147	989.06586	-356.65085	-353.0188	991.4931	-382.14636	-264.35083	1005.748	-548.9953	-133.74924	1006.0675	-542.47925	-404.30005	523.26996	-421.90891	-284.97736	485.78183	-372.88364	-409.00864	464.08044	-460.83441	-317.67749	332.75415	-550.97314	-341.21234	261.17859	-746.92682	-282.17322	223.05354	-680.60669	-262.90857	296.49448	-778.01477	-403.0802	106.94862	-753.14648	-345.28101	110.52741	-702.31622	-354.00836	71.987556	-691.04565	-71.418594	513.44049	-318.71359	-200.35387	505.8186	-300.13422	-69.916039	448.87067	-327.79611	-158.67302	300.77304	-294.19986	-116.13499	94.445419	-352.97861	-197.62723	119.21597	-315.19565	-177.42467	63.938915	-424.07407	-75.803917	41.36528	-220.13026	-138.99835	62.468086	-202.9104	-146.1255	50.129616	-160.76407
624	6.23	-205.53908	1364.2285	-300.12305	-12.647933	1421.7565	-391.43301	-383.17566	1413.0698	-387.64169	-94.151291	991.87543	-342.69284	-351.65424	995.00842	-368.75296	-262.64282	1008.8929	-535.12543	-132.09253	1009.0002	-528.3208	-404.33459	526.93915	-396.74686	-285.22833	489.86725	-346.53409	-408.81827	467.82788	-434.38037	-317.94833	335.08887	-522.57501	-340.759	261.89337	-718.04584	-282.33655	224.3176	-650.79669	-261.91357	294.33749	-750.99274	-406.13541	109.01588	-718.61646	-347.99179	112.77818	-668.46259	-357.62558	74.684021	-655.97205	-71.829292	514.07013	-312.18805	-200.79411	506.11591	-297.41721	-70.380043	449.60028	-322.15903	-159.53288	301.08249	-291.73215	-117.00748	94.663307	-352.24969	-197.97379	119.54961	-314.1568	-177.69421	64.511734	-423.80649	-75.951912	41.313976	-219.94868	-139.2281	61.899899	-202.43347	-146.22189	49.106232	-160.29187
625	6.24	-205.25362	1367.3184	-286.90512	-11.513461	1425.0133	-377.20215	-382.59842	1415.6366	-375.48953	-93.158836	994.46783	-328.81354	-349.98788	998.6637	-355.00012	-260.9187	1012.1249	-521.37238	-130.4753	1011.8907	-514.17279	-404.22495	530.84906	-372.01102	-285.5752	494.04086	-319.73181	-408.94235	471.57043	-408.13907	-318.59689	336.76932	-493.97107	-340.59186	260.79999	-688.6286	-282.76251	224.46028	-620.16144	-261.33698	290.92642	-723.03198	-408.50888	109.22491	-684.005	-350.0177	113.5795	-634.21594	-360.32571	76.018089	-620.33051	-72.277481	514.59363	-306.00836	-201.46123	506.20081	-293.85342	-70.844109	450.34436	-316.86588	-160.25812	301.09131	-289.78543	-117.07894	95.504425	-351.34723	-198.4751	119.82445	-313.19659	-178.16621	65.235741	-423.33295	-76.103058	41.323147	-219.79726	-139.44995	61.492939	-201.9296	-146.2626	48.168087	-159.9868
626	6.25	-205.00388	1370.3442	-273.8508	-10.822124	1428.1331	-363.17499	-382.00381	1418.0845	-363.46118	-92.147461	996.73865	-315.0043	-348.60803	1002.2113	-341.87991	-259.24347	1015.08	-507.38977	-128.86586	1014.8424	-500.04514	-404.12781	534.72418	-347.74948	-285.89435	498.44547	-293.15268	-409.07214	475.21649	-382.21725	-319.4379	337.98651	-464.94467	-340.66318	258.11716	-658.57465	-283.30685	223.54274	-588.7749	-261.14474	286.33578	-694.20776	-410.11136	107.59776	-648.71088	-351.99905	113.56574	-598.59247	-362.30688	76.414146	-583.53149	-72.828186	515.12732	-300.41211	-202.36826	506.29288	-289.936	-71.396263	451.09433	-312.33176	-160.72733	301.41132	-287.30099	-117.39525	96.538925	-350.15018	-198.84323	120.21625	-312.15674	-178.55885	66.140129	-422.89371	-76.267433	41.350792	-219.64711	-139.59254	61.198555	-201.45309	-146.28642	47.61908	-159.55614
627	6.26	-204.793	1373.2385	-260.88351	-10.429935	1431.2899	-349.13235	-381.44412	1420.3915	-351.49173	-91.107117	998.6347	-301.24106	-347.18719	1005.5681	-328.67322	-257.83722	1018.1053	-494.1322	-127.39606	1017.6235	-486.01395	-404.09628	538.59009	-323.92014	-286.22122	502.78079	-268.00418	-409.27792	478.72125	-356.63489	-320.12323	338.81961	-435.93387	-340.92007	253.95334	-627.86188	-283.51245	221.76846	-557.19507	-261.32043	280.42148	-664.77753	-411.07816	104.36396	-612.27209	-353.13602	112.22161	-562.08923	-363.56769	75.985992	-545.22552	-73.165764	515.75128	-295.33548	-203.48497	506.78189	-286.02908	-71.739082	451.92133	-308.41925	-160.88379	301.86832	-284.53406	-117.91702	97.131027	-349.3317	-199.17387	120.66858	-311.1088	-178.8188	67.331711	-422.29218	-76.398903	41.340717	-219.51241	-139.76999	60.886932	-201.04855	-146.32564	47.155628	-159.19719
628	6.27	-204.63994	1375.9008	-248.04749	-9.7324905	1434.2438	-335.29367	-380.73352	1422.5586	-339.6936	-90.075249	1000.3444	-287.41901	-345.65952	1008.7775	-315.34393	-256.5592	1020.7789	-480.57242	-126.14291	1020.2086	-472.00394	-404.164	542.35754	-300.50467	-285.98141	507.94583	-241.67639	-409.47565	481.66507	-331.48083	-320.435	340.31979	-404.64261	-341.28265	248.3828	-596.38507	-284.15204	219.23892	-524.21735	-261.85681	273.15607	-634.92834	-411.73141	99.8619	-574.07355	-353.8038	110.16328	-524.36603	-364.45084	75.105629	-505.28549	-73.415199	516.42542	-290.65161	-204.20442	507.2269	-281.75873	-72.112015	452.7124	-304.91446	-160.80783	302.30075	-281.79242	-117.95482	98.204048	-348.54752	-199.43715	121.20454	-310.04544	-179.31894	68.289597	-421.59021	-76.491554	41.320801	-219.40317	-139.75827	60.547234	-200.66496	-146.33369	46.764938	-158.85661
629	6.28	-204.50935	1378.3602	-235.11743	-9.5698071	1436.8433	-321.48163	-380.35034	1424.285	-327.68332	-89.249863	1001.2146	-274.87665	-344.2558	1011.7065	-301.88477	-255.43442	1023.1854	-467.04309	-125.07075	1022.5414	-458.12256	-404.34561	545.81403	-277.55399	-286.15732	512.95123	-217.71422	-409.63202	484.09796	-306.88498	-320.44519	340.42859	-376.24768	-341.70367	241.68872	-564.25012	-284.40845	216.07097	-491.00287	-262.79053	264.32245	-604.62006	-412.18259	94.621986	-534.09265	-353.86951	107.47383	-485.36118	-364.79504	73.601929	-464.18146	-73.436508	517.13	-286.31158	-204.5578	507.63928	-276.87943	-72.371765	453.62592	-301.41531	-160.701	302.79422	-278.96979	-118.43623	98.895935	-347.73001	-199.60249	121.86272	-308.8876	-179.43161	69.708466	-420.96899	-76.510567	41.274521	-219.27765	-139.79053	60.316174	-200.18355	-146.17914	46.575661	-158.44974
630	6.29	-204.44872	1380.4584	-222.26427	-8.8002148	1439.478	-307.38403	-379.66827	1425.8096	-315.87344	-88.272247	1002.4365	-261.24854	-342.88474	1014.1839	-288.9523	-254.65199	1025.3231	-453.51883	-124.28171	1024.5981	-444.44418	-404.58932	549.02435	-255.09787	-286.30515	517.97272	-194.55702	-409.70178	486.04877	-282.78088	-320.42862	340.13092	-347.28674	-342.21851	233.81866	-531.3399	-284.56879	212.33151	-457.20483	-263.64145	254.05637	-573.84344	-412.60837	88.978935	-492.3381	-354.2981	104.9208	-444.66077	-364.86383	72.110069	-421.58505	-73.69342	517.88666	-281.59473	-204.80112	508.02786	-271.93225	-72.700218	454.58841	-297.84756	-160.72707	303.3924	-276.09937	-118.37402	100.17382	-346.84518	-199.50439	122.36605	-307.87354	-179.34943	71.139984	-420.4151	-76.539482	41.203976	-219.15474	-139.70367	60.124573	-199.71277	-146.0894	46.158531	-158.16077
631	6.3	-204.46895	1382.2582	-209.37572	-8.6267958	1441.6793	-293.40762	-379.44061	1426.8735	-303.75906	-87.254036	1003.3248	-247.73886	-341.45239	1016.4601	-275.73929	-254.11761	1027.0908	-439.96735	-123.73402	1026.3577	-430.97693	-404.66013	551.98022	-233.12537	-286.31741	522.76544	-172.4003	-409.67993	487.47403	-259.16388	-320.36551	339.32404	-318.25192	-342.77917	224.8793	-497.6507	-284.70816	207.9408	-422.7847	-264.64362	242.42157	-542.34985	-413.0354	83.106125	-449.07925	-354.41898	102.12024	-403.00751	-364.89676	70.835999	-377.79871	-73.657608	518.60547	-277.23203	-204.88371	508.51877	-266.19073	-72.953423	455.56427	-294.08884	-160.71907	304.00821	-273.23492	-118.79672	101.20554	-345.7634	-199.74968	123.23896	-306.55811	-179.51532	72.998024	-419.37195	-76.566574	41.141483	-219.01811	-139.68147	59.881687	-199.28413	-146.04468	45.87883	-157.83424
632	6.31	-204.51068	1383.6843	-196.43924	-8.3159285	1443.4736	-279.49103	-378.83844	1427.6877	-291.71606	-86.321472	1004.2444	-234.33272	-340.40607	1018.4229	-261.54623	-253.8378	1028.5162	-426.43829	-123.44412	1027.795	-417.59903	-404.54596	554.52661	-211.722	-286.16699	527.28729	-151.33856	-409.56247	488.5307	-235.9332	-320.18863	338.21188	-289.15558	-343.32675	215.16229	-463.05505	-284.70294	202.99867	-387.66153	-265.86313	229.4993	-509.85629	-413.52853	77.561165	-404.4075	-354.60773	99.362793	-360.4306	-364.96143	69.797523	-333.58298	-73.75061	519.38068	-272.48743	-205.0955	509.16904	-260.7551	-73.215164	456.5733	-290.05176	-160.8661	304.70584	-270.09607	-118.86614	102.4	-344.85062	-199.58649	123.9515	-305.341	-179.54346	74.826309	-418.88412	-76.559349	41.062	-218.90314	-139.69917	59.676239	-198.74199	-146.00659	45.590752	-157.54692
633	6.32	-204.60373	1384.7834	-183.39777	-8.2213488	1444.7762	-265.82138	-378.81152	1428.0792	-279.35706	-85.473618	1004.8564	-221.34309	-339.27737	1019.8434	-247.9819	-253.85475	1029.6379	-412.9166	-123.46165	1028.8627	-404.36969	-404.33862	556.86127	-190.58937	-285.50079	531.86926	-130.40874	-409.29855	489.15057	-213.2854	-319.96368	336.64017	-260.06128	-343.8905	204.89388	-427.5304	-284.56097	197.18848	-352.9151	-267.14609	215.62263	-476.29053	-414.36307	72.170212	-358.91864	-354.96698	96.637482	-317.45789	-365.17615	69.060547	-288.2998	-73.858002	520.13214	-267.43546	-205.17352	510.12677	-254.64442	-73.476974	457.56079	-285.93976	-160.87497	305.36197	-267.1886	-118.88232	103.55257	-344.14828	-199.73599	124.89049	-304.02618	-179.44374	76.737793	-418.04965	-76.518845	40.965199	-218.80917	-139.57216	59.666149	-198.15686	-145.95956	45.379215	-157.22832
